<svg xmlns="http://www.w3.org/2000/svg" width="134" height="43" fill="none"><path fill="#fff" d="M0 21.5a8.174 8.174 0 0 0 8.185 8.185v-16.37A8.186 8.186 0 0 0 0 21.5Z"/><path fill="#fff" d="M16.369 37.87a8.174 8.174 0 0 0 8.185-8.185H8.184a8.174 8.174 0 0 0 8.185 8.185Zm8.186-24.555v16.37A8.174 8.174 0 0 0 32.74 21.5a8.174 8.174 0 0 0-8.185-8.185Zm-16.371 0h16.37a8.174 8.174 0 0 0-8.185-8.186 8.186 8.186 0 0 0-8.185 8.186ZM55.54 32.854c-2.007 0-3.782-.472-5.327-1.416-1.535-.955-2.735-2.283-3.6-3.985-.866-1.702-1.3-3.68-1.3-5.932 0-2.273.434-4.26 1.3-5.962.865-1.702 2.065-3.025 3.6-3.97 1.545-.954 3.32-1.431 5.327-1.431 1.19 0 2.302.177 3.335.531a8.693 8.693 0 0 1 2.79 1.55 8.528 8.528 0 0 1 2.021 2.405c.541.935.91 1.992 1.107 3.173h-3.35a6.101 6.101 0 0 0-.767-1.978 5.313 5.313 0 0 0-1.299-1.46 5.457 5.457 0 0 0-1.741-.915 6.683 6.683 0 0 0-2.066-.31c-1.427 0-2.661.349-3.704 1.047-1.043.699-1.845 1.673-2.405 2.922-.561 1.25-.842 2.715-.842 4.398 0 1.672.28 3.133.842 4.383.56 1.24 1.362 2.208 2.405 2.907 1.043.698 2.277 1.047 3.704 1.047.738 0 1.426-.103 2.066-.31a5.66 5.66 0 0 0 1.726-.9 5.39 5.39 0 0 0 1.299-1.446c.364-.58.63-1.24.797-1.977h3.335c-.187 1.16-.551 2.208-1.092 3.143a8.527 8.527 0 0 1-2.022 2.405 9.083 9.083 0 0 1-2.789 1.55c-1.033.354-2.15.531-3.35.531Zm14.154-22.342V32.5h-3.129V10.512h3.129ZM78.8 32.854c-1.486 0-2.794-.344-3.926-1.033-1.121-.689-1.997-1.648-2.626-2.877-.62-1.23-.93-2.647-.93-4.25 0-1.614.31-3.035.93-4.265.63-1.24 1.505-2.204 2.626-2.892 1.132-.699 2.44-1.048 3.926-1.048 1.495 0 2.803.349 3.925 1.047 1.122.69 1.992 1.653 2.612 2.893.63 1.23.944 2.651.944 4.265 0 1.603-.314 3.02-.944 4.25-.62 1.23-1.49 2.189-2.612 2.877-1.121.689-2.43 1.033-3.925 1.033Zm0-2.7c.905 0 1.677-.227 2.317-.68.649-.452 1.146-1.086 1.49-1.903.344-.826.517-1.785.517-2.877 0-1.112-.173-2.076-.517-2.893-.344-.826-.841-1.466-1.49-1.918-.64-.463-1.412-.694-2.317-.694-.896 0-1.668.227-2.317.68-.64.452-1.132 1.091-1.476 1.918-.344.826-.516 1.795-.516 2.907 0 1.101.172 2.06.516 2.877.344.817.836 1.451 1.476 1.904.65.452 1.421.679 2.317.679Zm12.264-6.7V32.5h-3.129V16.828h3.055v3.881h-.679c.502-1.407 1.21-2.454 2.125-3.143.915-.689 2.017-1.033 3.306-1.033 1.072 0 2.031.231 2.877.694.856.462 1.53 1.155 2.022 2.08.492.915.738 2.052.738 3.41V32.5H98.25v-9.4c0-1.24-.3-2.18-.9-2.819-.6-.64-1.44-.959-2.523-.959-.708 0-1.348.148-1.918.443-.561.285-1.009.733-1.343 1.343-.335.6-.502 1.382-.502 2.346Zm12.722 9.046V16.828h3.128V32.5h-3.128Zm1.549-18.343a1.962 1.962 0 0 1-1.402-.546 1.824 1.824 0 0 1-.575-1.357c0-.542.191-.994.575-1.358.384-.374.851-.56 1.402-.56.561 0 1.028.186 1.402.56.384.364.575.816.575 1.357 0 .532-.191.984-.575 1.358-.374.364-.841.546-1.402.546Zm11.585 2.671v2.583h-9.178v-2.583h9.178ZM110.575 32.5V14.364c0-.846.177-1.56.531-2.14a3.454 3.454 0 0 1 1.55-1.343c.669-.315 1.465-.472 2.39-.472.423 0 .817.005 1.181.015.374.01.629.02.767.03l-.074 2.582a8.313 8.313 0 0 0-.619-.015c-.305-.01-.561-.015-.768-.015-.659 0-1.131.148-1.416.443-.276.285-.414.757-.414 1.417V32.5h-3.128Zm7.896 6.139.074-2.612h1.549c.354.02.659-.035.915-.162.266-.119.502-.315.709-.59.206-.266.388-.625.546-1.078l.678-1.786-6.05-15.583h3.35l3.128 8.633c.296.826.576 1.653.842 2.48.265.826.526 1.652.782 2.478h-.871c.256-.826.516-1.652.782-2.479a94.15 94.15 0 0 1 .856-2.48l3.099-8.632h3.306l-7.099 18.358c-.295.767-.664 1.407-1.106 1.918a4.28 4.28 0 0 1-1.52 1.18c-.581.266-1.235.4-1.963.4-.344 0-.689-.006-1.033-.016l-.974-.03Z"/></svg>