<svg xmlns="http://www.w3.org/2000/svg" width="134" height="43" fill="none"><g clip-path="url(#a)"><path fill="#fff" d="M18.61 40.11h5.651l-1.645-1.644a2.327 2.327 0 0 0-1.645-.682h-2.36c-8.994 0-16.285-7.29-16.285-16.284 0-8.993 7.291-16.284 16.284-16.284h18.611c8.994 0 16.284 7.29 16.284 16.284s-7.29 16.284-16.284 16.284H30.26a3.49 3.49 0 0 1-2.467-1.022l-1.927-1.927a5.816 5.816 0 0 0-4.113-1.703H18.61c-6.423 0-11.631-5.208-11.631-11.632 0-6.424 5.208-11.631 11.631-11.631h18.611c6.424 0 11.632 5.207 11.632 11.631S43.645 33.132 37.22 33.132h-4.47a3.49 3.49 0 0 1-2.468-1.022l-1.927-1.927a5.816 5.816 0 0 0-4.112-1.704H18.61a6.979 6.979 0 0 1 0-13.958h18.611a6.979 6.979 0 0 1 .14 13.957v.001h-1.702a3.49 3.49 0 0 1-2.468-1.022l-1.927-1.927a5.815 5.815 0 0 0-3.29-1.645l-.058-.059H18.61a2.326 2.326 0 1 1 0-4.652h18.611a2.326 2.326 0 0 1 0 4.652h-4.653l1.645 1.645a2.326 2.326 0 0 0 1.645.682h1.363a4.653 4.653 0 0 0 0-9.305h-18.61a4.653 4.653 0 0 0 0 9.305h8.54a3.49 3.49 0 0 1 2.468 1.022l1.927 1.927a5.816 5.816 0 0 0 4.113 1.703h2.144v-.017a9.306 9.306 0 0 0-.582-18.593h-18.61a9.305 9.305 0 0 0 0 18.61h5.633a3.49 3.49 0 0 1 2.467 1.022l1.928 1.928a5.816 5.816 0 0 0 4.112 1.703h4.47c7.709 0 13.958-6.25 13.958-13.958 0-7.709-6.25-13.958-13.958-13.958h-18.61c-7.71 0-13.958 6.25-13.958 13.958 0 7.709 6.249 13.958 13.957 13.958h3.142a3.49 3.49 0 0 1 2.468 1.022l1.927 1.927a5.816 5.816 0 0 0 4.112 1.704h6.962c10.278 0 18.61-8.332 18.61-18.61 0-10.28-8.332-18.611-18.61-18.611h-18.61C8.331 2.89 0 11.222 0 21.5c0 10.28 8.332 18.61 18.61 18.61Z"/></g><path fill="#fff" d="M70.996 34V9.003h9.345c1.722 0 3.193.274 4.412.822 1.22.537 2.147 1.298 2.785 2.282.649.973.973 2.13.973 3.473 0 .95-.168 1.783-.503 2.5a4.798 4.798 0 0 1-1.443 1.794c-.626.481-1.376.861-2.248 1.141v.034a6.727 6.727 0 0 1 2.634.922 5.204 5.204 0 0 1 1.862 1.98c.458.828.688 1.834.688 3.02 0 1.409-.33 2.645-.99 3.707-.649 1.052-1.633 1.868-2.953 2.45-1.32.581-2.964.872-4.932.872h-9.63Zm3.691-3.137h5.704c1.7 0 3.009-.33 3.926-.99.928-.671 1.392-1.644 1.392-2.92 0-.85-.201-1.576-.604-2.18-.402-.615-.99-1.09-1.761-1.426-.772-.335-1.711-.503-2.819-.503h-5.838v8.019Zm0-11.09h5.603c.951 0 1.762-.15 2.433-.452.682-.313 1.202-.755 1.56-1.326.358-.57.537-1.247.537-2.03 0-1.174-.402-2.102-1.208-2.784-.794-.694-1.901-1.04-3.322-1.04h-5.603v7.633Zm20.2-10.77V34h-3.54V9.003h3.54Zm10.252 25.4c-1.689 0-3.171-.392-4.446-1.175s-2.27-1.868-2.986-3.254c-.705-1.387-1.057-2.986-1.057-4.798 0-1.835.352-3.445 1.057-4.832.716-1.398 1.711-2.488 2.986-3.271 1.275-.794 2.757-1.191 4.446-1.191 1.689 0 3.165.397 4.429 1.19 1.275.784 2.265 1.874 2.969 3.272.716 1.387 1.074 2.997 1.074 4.832 0 1.812-.358 3.41-1.074 4.798-.704 1.386-1.694 2.471-2.969 3.254-1.264.783-2.74 1.175-4.429 1.175Zm0-3.054c1.006 0 1.873-.251 2.6-.755.738-.514 1.303-1.235 1.695-2.164.402-.928.604-2.013.604-3.254 0-1.275-.202-2.377-.604-3.305-.392-.929-.957-1.65-1.695-2.164-.727-.515-1.594-.772-2.6-.772-1.007 0-1.879.257-2.617.772-.727.503-1.292 1.224-1.695 2.164-.391.928-.587 2.03-.587 3.305 0 1.252.196 2.343.587 3.271.403.917.968 1.633 1.695 2.147.727.504 1.599.755 2.617.755Zm19.227 3.003a7.056 7.056 0 0 1-2.181-.335 6.104 6.104 0 0 1-1.879-1.007 6.141 6.141 0 0 1-1.426-1.711h-.033V34h-3.473V9.003h3.54v9.848h.033c.38-.66.845-1.202 1.393-1.627a6.002 6.002 0 0 1 1.862-.957 7.056 7.056 0 0 1 2.181-.335c1.532 0 2.868.391 4.009 1.174 1.152.772 2.047 1.851 2.684 3.238.649 1.376.973 2.975.973 4.798s-.318 3.428-.956 4.815c-.637 1.376-1.532 2.455-2.684 3.238-1.152.771-2.5 1.157-4.043 1.157Zm-.721-3.053c.961 0 1.8-.235 2.516-.705.716-.48 1.275-1.174 1.678-2.08.413-.917.62-2.041.62-3.372 0-1.342-.207-2.472-.62-3.389-.403-.917-.962-1.61-1.678-2.08s-1.555-.705-2.516-.705c-1.007 0-1.885.258-2.634.772-.739.503-1.314 1.22-1.728 2.148-.403.917-.604 2.002-.604 3.254 0 1.23.201 2.31.604 3.238.414.928.989 1.65 1.728 2.164.749.503 1.627.755 2.634.755Z"/><defs><clipPath id="a"><path fill="#fff" d="M0 2.89h55.832v37.22H0z"/></clipPath></defs></svg>